<svg width="61" height="26" viewBox="0 0 61 26" fill="none" xmlns="http://www.w3.org/2000/svg">
<path d="M16.8219 20.4604L16.822 20.4604L16.8161 20.4549L12.2256 16.2034L16.2868 12.3254L16.2869 12.3255L16.2951 12.3173C16.8765 11.7359 17.2103 11.0693 17.2103 10.3259C17.2103 9.56172 16.9178 8.89912 16.3576 8.3636C15.803 7.81096 15.1337 7.5195 14.3705 7.5195C13.6164 7.5195 12.9487 7.83226 12.3805 8.3999C12.38 8.40037 12.3795 8.40085 12.379 8.40132L6.54735 14.1455V3.37326C6.54735 2.48352 6.26282 1.73603 5.63306 1.21835C5.06122 0.730099 4.35097 0.5 3.54039 0.5C2.70911 0.5 1.97893 0.72902 1.38533 1.21469L1.38525 1.21459L1.37655 1.22204C0.76954 1.74234 0.5 2.48915 0.5 3.37326V22.5265C0.5 23.4106 0.76954 24.1574 1.37655 24.6777L1.37647 24.6778L1.38533 24.685C1.97893 25.1707 2.70911 25.3997 3.54039 25.3997C4.35099 25.3997 5.06125 25.1696 5.6331 24.6813C6.26283 24.1637 6.54735 23.4162 6.54735 22.5265V18.5575L13.0252 24.5621C13.5909 25.101 14.2437 25.3997 14.9721 25.3997C15.7279 25.3997 16.38 25.085 16.9091 24.5052C17.4547 23.9316 17.7451 23.2553 17.7451 22.493C17.7451 21.7134 17.4183 21.0309 16.8219 20.4604ZM19.2339 21.2552L19.2339 21.2552L19.2371 21.2612C19.974 22.6161 21.0241 23.6662 22.379 24.403C23.7341 25.14 25.3008 25.5 27.0635 25.5C28.1288 25.5 29.1521 25.3726 30.1317 25.116C31.1065 24.8607 31.9767 24.4984 32.7369 24.0243C33.583 23.53 34.0148 22.7505 34.0148 21.7577C34.0148 21.0962 33.8489 20.5063 33.4832 20.0242C33.1329 19.5323 32.644 19.2521 32.044 19.2521C31.6954 19.2521 31.363 19.3182 31.0533 19.4558C30.7886 19.5531 30.4439 19.7034 30.025 19.9019L30.0163 19.906L30.0077 19.9105C29.5118 20.1692 29.1015 20.3582 28.7732 20.4822C28.4779 20.5728 28.122 20.6226 27.6986 20.6226C26.569 20.6226 25.7655 20.266 25.2108 19.6024C24.6647 18.9224 24.3546 17.8938 24.3546 16.4429C24.3546 14.9888 24.666 13.9747 25.2086 13.3195C25.7633 12.6541 26.5675 12.2967 27.6986 12.2967C28.1199 12.2967 28.4706 12.3569 28.7598 12.4654L28.7598 12.4655L28.769 12.4687C29.1196 12.5924 29.5206 12.7711 29.9736 13.0084L29.9825 13.013L29.9916 13.0173C30.4159 13.2183 30.7529 13.3756 31.0015 13.4886L31.0254 13.4995L31.0503 13.5078C31.3701 13.6144 31.7021 13.6671 32.044 13.6671C32.6471 13.6671 33.1518 13.4148 33.5137 12.9323L33.518 12.9265L33.5222 12.9207C33.8625 12.4385 34.0148 11.8517 34.0148 11.195C34.0148 10.201 33.5828 9.41423 32.7417 8.89797C31.9827 8.42382 31.1237 8.06053 30.1695 7.80439C29.2371 7.54811 28.3017 7.41922 27.3644 7.41922C25.5776 7.41922 23.9781 7.79105 22.58 8.54934C21.1815 9.30788 20.088 10.3899 19.3068 11.7866L19.3054 11.7891C18.5453 13.1668 18.1736 14.7566 18.1736 16.5432C18.1736 18.3244 18.5209 19.9004 19.2339 21.2552ZM50.1753 24.6945L50.1755 24.6946L50.185 24.685C50.7227 24.1474 50.9666 23.4292 50.9666 22.5933V15.039C50.9666 12.5626 50.3712 10.6276 49.0835 9.33881C47.7951 8.02687 45.8588 7.41922 43.3802 7.41922C42.2507 7.41922 41.1011 7.54603 39.9322 7.79814L39.9302 7.79859C38.7825 8.05107 37.7888 8.39919 36.9578 8.85026L36.9554 8.85159C36.4699 9.11865 36.0757 9.43211 35.8159 9.80732C35.5438 10.2004 35.4262 10.6746 35.4262 11.195C35.4262 11.8416 35.5961 12.4173 35.9727 12.8808L35.9777 12.8869L35.9829 12.8929C36.3785 13.3494 36.913 13.5669 37.5306 13.5669C37.9872 13.5669 38.4925 13.4146 39.0289 13.1603C40.8121 12.5012 42.1174 12.1964 42.9791 12.1964C43.8847 12.1964 44.3941 12.3998 44.6551 12.6753L44.655 12.6755L44.6646 12.685C44.953 12.9735 45.1532 13.4946 45.1532 14.3705V14.4721H44.7841C42.4064 14.4721 40.5027 14.6286 39.0901 14.9528C37.6778 15.2769 36.5751 15.8129 35.856 16.6091L35.8559 16.6091L35.85 16.6159C35.1469 17.4231 34.8245 18.5 34.8245 19.7855C34.8245 20.8584 35.1065 21.8437 35.672 22.7288L35.6719 22.7289L35.6773 22.737C36.262 23.6141 37.0425 24.2955 38.009 24.7787L38.0134 24.7809C39.0017 25.2629 40.0916 25.5 41.2744 25.5C42.3984 25.5 43.4038 25.2481 44.2726 24.7268C44.7111 24.4637 45.0887 24.148 45.4036 23.781C45.531 24.0972 45.7154 24.3858 45.9592 24.6424L45.9681 24.6517L45.9774 24.6605C46.5308 25.1863 47.2406 25.4331 48.0599 25.4331C48.9059 25.4331 49.6339 25.2074 50.1753 24.6945ZM54.6169 24.7111L54.6168 24.7112L54.6257 24.7185C55.2193 25.2041 55.9494 25.4331 56.7807 25.4331C57.5913 25.4331 58.3016 25.203 58.8735 24.7147C59.5032 24.1971 59.7877 23.4496 59.7877 22.5599V3.37326C59.7877 2.48353 59.5032 1.73605 58.8734 1.21837C58.3016 0.730105 57.5913 0.5 56.7807 0.5C55.9494 0.5 55.2193 0.729021 54.6257 1.21469L54.6256 1.21459L54.6169 1.22204C54.0099 1.74234 53.7403 2.48915 53.7403 3.37326L53.7404 3.37987L54 23C54 23.0011 54 23.0023 54 23.0034C54 23.0431 53.9998 23.0826 53.9997 23.1219C53.9985 23.4218 53.9973 23.7048 54.0643 23.9431C54.157 24.2728 54.3598 24.4907 54.6169 24.7111ZM45.1532 17.9805C45.1532 18.9242 44.8857 19.6552 44.3819 20.2166C43.8862 20.7475 43.2345 21.0237 42.3774 21.0237C41.869 21.0237 41.4709 20.8746 41.1502 20.5921C40.859 20.296 40.7047 19.9182 40.7047 19.4178C40.7047 19.1193 40.774 18.9019 40.8854 18.7382C40.997 18.5744 41.1765 18.4266 41.4602 18.311C42.1002 18.0597 43.2851 17.9123 45.085 17.9123H45.1532V17.9805Z" fill="#91C788" stroke="none"/>
</svg>
