<svg width="35" height="35" viewBox="0 0 35 35" fill="none" xmlns="http://www.w3.org/2000/svg">
<path fill-rule="evenodd" clip-rule="evenodd" d="M29.7533 19.8043C30.275 20.0814 30.6774 20.5189 30.9605 20.9564C31.512 21.8606 31.4672 22.9689 30.9307 23.946L29.8875 25.696C29.336 26.6293 28.3077 27.2126 27.2495 27.2126C26.7279 27.2126 26.1467 27.0668 25.6698 26.7751C25.2823 26.5272 24.8352 26.4397 24.3583 26.4397C22.8828 26.4397 21.6458 27.6501 21.6011 29.0939C21.6011 30.771 20.23 32.0835 18.5161 32.0835H16.4892C14.7604 32.0835 13.3892 30.771 13.3892 29.0939C13.3594 27.6501 12.1224 26.4397 10.647 26.4397C10.1552 26.4397 9.70807 26.5272 9.33548 26.7751C8.85857 27.0668 8.26243 27.2126 7.75571 27.2126C6.68265 27.2126 5.65431 26.6293 5.10288 25.696L4.07453 23.946C3.5231 22.9981 3.49329 21.8606 4.04472 20.9564C4.28318 20.5189 4.73029 20.0814 5.23701 19.8043C5.65431 19.6001 5.92257 19.2647 6.17593 18.871C6.92111 17.6168 6.474 15.9689 5.2072 15.2251C3.73175 14.3939 3.25484 12.5418 4.10434 11.0981L5.10288 9.37722C5.96728 7.93348 7.81532 7.42306 9.30568 8.26889C10.6023 8.96889 12.2864 8.50222 13.0465 7.26264C13.2849 6.85431 13.4191 6.41681 13.3892 5.97931C13.3594 5.41056 13.5234 4.87098 13.8065 4.43348C14.358 3.52931 15.3565 2.94598 16.4445 2.91681H18.5459C19.6487 2.91681 20.6473 3.52931 21.1987 4.43348C21.467 4.87098 21.6458 5.41056 21.6011 5.97931C21.5713 6.41681 21.7054 6.85431 21.9439 7.26264C22.704 8.50222 24.3881 8.96889 25.6996 8.26889C27.175 7.42306 29.038 7.93348 29.8875 9.37722L30.886 11.0981C31.7504 12.5418 31.2735 14.3939 29.7831 15.2251C28.5163 15.9689 28.0692 17.6168 28.8293 18.871C29.0678 19.2647 29.336 19.6001 29.7533 19.8043ZM13.285 17.5147C13.285 19.8043 15.1777 21.6272 17.5176 21.6272C19.8574 21.6272 21.7055 19.8043 21.7055 17.5147C21.7055 15.2251 19.8574 13.3876 17.5176 13.3876C15.1777 13.3876 13.285 15.2251 13.285 17.5147Z" fill="#FF9385"/>
</svg>
