<svg width="35" height="35" viewBox="0 0 35 35" fill="none" xmlns="http://www.w3.org/2000/svg">
<path d="M30.9605 20.9565L31.4728 20.644L31.4686 20.6372L31.4642 20.6304L30.9605 20.9565ZM29.7533 19.8044L30.0348 19.2745L30.026 19.2698L30.017 19.2654L29.7533 19.8044ZM30.9307 23.946L31.4461 24.2533L31.4515 24.2441L31.4566 24.2348L30.9307 23.946ZM29.8875 25.696L29.3721 25.3888L29.3709 25.3908L29.8875 25.696ZM25.6698 26.7752L25.3463 27.2807L25.3567 27.2871L25.6698 26.7752ZM21.6011 29.094L21.0014 29.0754L21.0011 29.0847V29.094H21.6011ZM13.3892 29.094H13.9894L13.9891 29.0816L13.3892 29.094ZM9.33548 26.7752L9.64852 27.2871L9.65831 27.2811L9.66786 27.2747L9.33548 26.7752ZM5.10288 25.696L4.58558 26L4.5863 26.0012L5.10288 25.696ZM4.07453 23.946L3.5559 24.2477L3.55723 24.25L4.07453 23.946ZM4.04472 20.9565L4.55697 21.2689L4.56457 21.2564L4.57155 21.2436L4.04472 20.9565ZM5.23701 19.8044L4.97332 19.2654L4.96109 19.2714L4.94914 19.2779L5.23701 19.8044ZM6.17593 18.871L6.6805 19.1957L6.68629 19.1867L6.69175 19.1775L6.17593 18.871ZM5.2072 15.2252L5.51103 14.7077L5.50171 14.7025L5.2072 15.2252ZM4.10434 11.0981L4.62147 11.4024L4.6233 11.3993L4.10434 11.0981ZM5.10288 9.37729L4.58804 9.06904L4.58392 9.07615L5.10288 9.37729ZM9.30568 8.26895L9.00946 8.79089L9.02064 8.79692L9.30568 8.26895ZM13.0465 7.2627L13.5581 7.57641L13.5646 7.56527L13.0465 7.2627ZM13.3892 5.97937L12.79 6.01078L12.7906 6.02015L13.3892 5.97937ZM13.8065 4.43354L14.3102 4.75955L14.3146 4.75281L14.3188 4.74595L13.8065 4.43354ZM16.4445 2.91687V2.31687H16.4364L16.4284 2.31709L16.4445 2.91687ZM21.1987 4.43354L20.6865 4.74595L20.6872 4.74717L21.1987 4.43354ZM21.6011 5.97937L21.0029 5.93235L21.0025 5.93859L21.6011 5.97937ZM21.9439 7.2627L21.4256 7.56534L21.4324 7.57634L21.9439 7.2627ZM25.6996 8.26895L25.9821 8.79828L25.9901 8.794L25.998 8.78949L25.6996 8.26895ZM29.8875 9.37729L30.4064 9.07615L30.4046 9.07301L29.8875 9.37729ZM30.886 11.0981L30.367 11.3993L30.3712 11.4063L30.886 11.0981ZM29.7831 15.2252L29.4908 14.7011L29.4794 14.7078L29.7831 15.2252ZM28.8293 18.871L29.3425 18.5602L29.3424 18.5601L28.8293 18.871ZM31.4642 20.6304C31.1433 20.1345 30.6716 19.6128 30.0348 19.2745L29.4719 20.3342C29.8783 20.5501 30.2115 20.9034 30.4568 21.2825L31.4642 20.6304ZM31.4566 24.2348C32.0778 23.1037 32.1551 21.7628 31.4728 20.644L30.4483 21.2689C30.8688 21.9584 30.8567 22.8342 30.4048 23.6572L31.4566 24.2348ZM30.4028 26.0033L31.4461 24.2533L30.4153 23.6388L29.3721 25.3888L30.4028 26.0033ZM27.2495 27.8127C28.5214 27.8127 29.7454 27.116 30.404 26.0012L29.3709 25.3908C28.9267 26.1427 28.094 26.6127 27.2495 26.6127V27.8127ZM25.3567 27.2871C25.9354 27.641 26.6266 27.8127 27.2495 27.8127V26.6127C26.8292 26.6127 26.358 26.4928 25.9828 26.2633L25.3567 27.2871ZM24.3583 27.0398C24.7644 27.0398 25.0867 27.1145 25.3464 27.2806L25.9931 26.2698C25.4778 25.9401 24.9059 25.8398 24.3583 25.8398V27.0398ZM22.2008 29.1125C22.2355 27.9939 23.2058 27.0398 24.3583 27.0398V25.8398C22.5598 25.8398 21.0562 27.3065 21.0014 29.0754L22.2008 29.1125ZM18.5161 32.6835C20.5413 32.6835 22.2011 31.1221 22.2011 29.094H21.0011C21.0011 30.4199 19.9187 31.4835 18.5161 31.4835V32.6835ZM16.4892 32.6835H18.5161V31.4835H16.4892V32.6835ZM12.7892 29.094C12.7892 31.124 14.451 32.6835 16.4892 32.6835V31.4835C15.0697 31.4835 13.9892 30.4181 13.9892 29.094H12.7892ZM10.647 27.0398C11.8007 27.0398 12.7664 27.9939 12.7894 29.1063L13.9891 29.0816C13.9525 27.3065 12.4442 25.8398 10.647 25.8398V27.0398ZM9.66786 27.2747C9.90577 27.1164 10.2208 27.0398 10.647 27.0398V25.8398C10.0896 25.8398 9.51037 25.9381 9.0031 26.2757L9.66786 27.2747ZM7.75571 27.8127C8.36226 27.8127 9.06869 27.6417 9.64852 27.2871L9.02244 26.2633C8.64845 26.4921 8.16259 26.6127 7.75571 26.6127V27.8127ZM4.5863 26.0012C5.24575 27.1174 6.47058 27.8127 7.75571 27.8127V26.6127C6.89472 26.6127 6.06287 26.1413 5.61945 25.3908L4.5863 26.0012ZM3.55723 24.25L4.58558 26L5.62017 25.3921L4.59183 23.6421L3.55723 24.25ZM3.53247 20.644C2.85459 21.7556 2.9056 23.1299 3.5559 24.2477L4.59316 23.6443C4.1406 22.8664 4.132 21.9657 4.55697 21.2689L3.53247 20.644ZM4.94914 19.2779C4.35358 19.6036 3.81767 20.1193 3.5179 20.6693L4.57155 21.2436C4.74869 20.9186 5.107 20.5593 5.52487 20.3308L4.94914 19.2779ZM5.67136 18.5464C5.4343 18.9148 5.23952 19.1352 4.97332 19.2654L5.50069 20.3433C6.0691 20.0652 6.41084 19.6148 6.6805 19.1957L5.67136 18.5464ZM4.90342 15.7426C5.89268 16.3234 6.22995 17.6055 5.66011 18.5646L6.69175 19.1775C7.61226 17.6283 7.05532 15.6145 5.51098 14.7078L4.90342 15.7426ZM3.58721 10.7938C2.57012 12.5224 3.14009 14.7493 4.91269 15.7479L5.50171 14.7025C4.32341 14.0386 3.93955 12.5613 4.62146 11.4024L3.58721 10.7938ZM4.58392 9.07615L3.58538 10.797L4.6233 11.3993L5.62183 9.67842L4.58392 9.07615ZM9.60183 7.74713C7.82427 6.73831 5.61771 7.34938 4.58809 9.06907L5.61766 9.6855C6.31686 8.51769 7.80637 8.10793 9.00952 8.79077L9.60183 7.74713ZM12.535 6.94906C11.9401 7.91921 10.6048 8.28847 9.59071 7.74098L9.02064 8.79692C10.5997 9.64944 12.6327 9.08536 13.558 7.57634L12.535 6.94906ZM12.7906 6.02015C12.8101 6.30644 12.7242 6.62475 12.5283 6.96013L13.5646 7.56527C13.8456 7.08399 14.028 6.5273 13.9879 5.93859L12.7906 6.02015ZM13.3028 4.10752C12.956 4.64339 12.7532 5.3069 12.7901 6.01077L13.9884 5.94797C13.9657 5.51434 14.0907 5.09868 14.3102 4.75955L13.3028 4.10752ZM16.4284 2.31709C15.1382 2.35167 13.9523 3.04224 13.2943 4.12113L14.3188 4.74595C14.7637 4.0165 15.5749 3.5404 16.4606 3.51665L16.4284 2.31709ZM18.5459 2.31687H16.4445V3.51687H18.5459V2.31687ZM21.711 4.12113C21.0585 3.05133 19.8727 2.31687 18.5459 2.31687V3.51687C19.4248 3.51687 20.236 4.00741 20.6865 4.74595L21.711 4.12113ZM22.1993 6.02639C22.2561 5.30276 22.028 4.63819 21.7102 4.1199L20.6872 4.74717C20.9059 5.10388 21.0355 5.51848 21.0029 5.93235L22.1993 6.02639ZM22.462 6.96013C22.2661 6.62475 22.1802 6.30644 22.1997 6.02015L21.0025 5.93859C20.9624 6.5273 21.1447 7.08399 21.4258 7.56527L22.462 6.96013ZM25.4171 7.73963C24.3848 8.29057 23.0491 7.91726 22.4554 6.94906L21.4324 7.57634C22.3589 9.08731 24.3913 9.64733 25.9821 8.79828L25.4171 7.73963ZM30.4046 9.07301C29.3896 7.34807 27.1639 6.73787 25.4012 7.74842L25.998 8.78949C27.1861 8.10837 28.6863 8.519 29.3703 9.68156L30.4046 9.07301ZM31.405 10.797L30.4064 9.07615L29.3685 9.67842L30.367 11.3993L31.405 10.797ZM30.0754 15.7492C31.8644 14.7514 32.4374 12.5212 31.4008 10.7899L30.3712 11.4063C31.0634 12.5625 30.6826 14.0365 29.4909 14.7012L30.0754 15.7492ZM29.3424 18.5601C28.7624 17.6029 29.0977 16.3234 30.0869 15.7426L29.4794 14.7078C27.935 15.6145 27.3761 17.6308 28.3162 19.182L29.3424 18.5601ZM30.017 19.2654C29.7525 19.136 29.5584 18.9166 29.3425 18.5602L28.3161 19.1818C28.5772 19.613 28.9196 20.0644 29.4897 20.3433L30.017 19.2654ZM17.5176 21.0273C15.4911 21.0273 13.885 19.4553 13.885 17.5148H12.685C12.685 20.1534 14.8643 22.2273 17.5176 22.2273V21.0273ZM21.1055 17.5148C21.1055 19.4635 19.5356 21.0273 17.5176 21.0273V22.2273C20.1793 22.2273 22.3055 20.1452 22.3055 17.5148H21.1055ZM17.5176 13.9877C19.5328 13.9877 21.1055 15.5633 21.1055 17.5148H22.3055C22.3055 14.8871 20.1821 12.7877 17.5176 12.7877V13.9877ZM13.885 17.5148C13.885 15.5715 15.494 13.9877 17.5176 13.9877V12.7877C14.8615 12.7877 12.685 14.8789 12.685 17.5148H13.885Z" fill="black" fill-opacity="0.42"/>
</svg>
