<svg width="13" height="13" viewBox="0 0 13 13" fill="none" xmlns="http://www.w3.org/2000/svg">
<path d="M8.32608 6.58354C8.29783 6.61254 8.19117 6.73655 8.09181 6.83856C7.5093 7.48011 5.98967 8.53025 5.19428 8.85082C5.07348 8.90233 4.76808 9.01135 4.60491 9.01837C4.44855 9.01838 4.2995 8.98239 4.15726 8.90941C3.97995 8.80742 3.83771 8.64693 3.75976 8.45744C3.70957 8.32595 3.6316 7.93245 3.6316 7.92545C3.55363 7.49496 3.51071 6.79546 3.51064 6.02246C3.51057 5.28596 3.55338 4.61496 3.61715 4.17795C3.62446 4.17095 3.70235 3.68195 3.78757 3.51444C3.9439 3.20843 4.24929 3.0184 4.57613 3.01837L4.60438 3.01837C4.81724 3.02585 5.2649 3.21581 5.2649 3.22281C6.01748 3.54374 7.50223 4.54211 8.09897 5.20556C8.09897 5.20556 8.26704 5.37605 8.34011 5.48254C8.4541 5.63553 8.51062 5.82503 8.51064 6.01453C8.51066 6.22603 8.44686 6.42303 8.32608 6.58354" fill="white"/>
</svg>
