<?xml version="1.0" encoding="iso-8859-1"?>
<!-- Uploaded to: SVG Repo, www.svgrepo.com, Generator: SVG Repo Mixer Tools -->
<svg version="1.1" id="Layer_1" xmlns="http://www.w3.org/2000/svg" xmlns:xlink="http://www.w3.org/1999/xlink" 
	 viewBox="0 0 512 512" xml:space="preserve">
<path style="fill:#C16C49;" d="M119.832,8.169v168.853l136.167,43.575l136.176-43.575V8.169
	C392.175,8.169,119.832,8.169,119.832,8.169z"/>
<polygon style="fill:#C41216;" points="403.069,434.354 403.069,503.834 366.291,467.035 329.525,503.834 292.759,467.035 
	255.992,503.834 219.226,467.035 182.471,503.834 145.704,467.035 108.938,503.834 108.938,434.354 255.992,390.779 "/>
<rect x="119.831" y="177.023" style="fill:#E2D8BD;" width="272.343" height="65.362"/>
<rect x="108.937" y="209.704" style="fill:#F92629;" width="294.131" height="224.651"/>
<g>
	<rect x="152.512" y="40.85" style="fill:#B54E25;" width="70.809" height="70.809"/>
	<rect x="288.683" y="40.85" style="fill:#B54E25;" width="70.809" height="70.809"/>
</g>
<g>
	<path style="fill:#440852;" d="M152.51,119.831h38.128c4.513,0,8.17-3.657,8.17-8.17c0-4.513-3.657-8.17-8.17-8.17H160.68V49.022
		h54.469V78.98c0,4.513,3.657,8.17,8.17,8.17c4.513,0,8.17-3.657,8.17-8.17V40.852c0-4.513-3.657-8.17-8.17-8.17H152.51
		c-4.513,0-8.17,3.657-8.17,8.17v70.809C144.339,116.174,147.996,119.831,152.51,119.831z"/>
	<path style="fill:#440852;" d="M288.681,119.831h38.128c4.513,0,8.17-3.657,8.17-8.17c0-4.513-3.657-8.17-8.17-8.17h-29.958V49.022
		h54.469V78.98c0,4.513,3.657,8.17,8.17,8.17c4.513,0,8.17-3.657,8.17-8.17V40.852c0-4.513-3.657-8.17-8.17-8.17h-70.809
		c-4.513,0-8.17,3.657-8.17,8.17v70.809C280.511,116.174,284.168,119.831,288.681,119.831z"/>
	<path style="fill:#440852;" d="M403.065,201.534h-2.723V8.17c0-4.513-3.657-8.17-8.17-8.17H119.828c-4.513,0-8.17,3.657-8.17,8.17
		v193.364h-2.723c-4.513,0-8.17,3.657-8.17,8.17V503.83c0,3.305,1.991,6.286,5.046,7.549c1.01,0.418,2.07,0.621,3.122,0.621
		c2.128,0,4.219-0.831,5.782-2.396l30.986-31.013l30.986,31.013c1.533,1.534,3.611,2.396,5.78,2.396c2.169,0,4.247-0.862,5.78-2.396
		l30.982-31.012l30.981,31.012c1.532,1.534,3.611,2.396,5.78,2.396c2.169,0,4.247-0.862,5.78-2.396l30.986-31.014l30.994,31.016
		c1.532,1.533,3.61,2.394,5.779,2.394c2.169,0,4.246-0.862,5.78-2.396l30.987-31.013l30.988,31.013
		c2.338,2.338,5.849,3.036,8.906,1.775c3.054-1.264,5.045-4.244,5.045-7.549V209.704
		C411.236,205.191,407.578,201.534,403.065,201.534z M384.001,136.172H264.17V16.341h119.831V136.172z M247.83,16.341v119.831
		H127.999V16.341H247.83z M127.999,168.853v-16.341H247.83v16.341H127.999z M127.999,185.193h231.492c4.513,0,8.17-3.657,8.17-8.17
		c0-4.513-3.657-8.17-8.17-8.17h-95.32v-16.341h119.831v49.022H127.999L127.999,185.193L127.999,185.193z M372.076,461.257
		c-1.533-1.534-3.611-2.396-5.78-2.396c-2.169,0-4.246,0.862-5.78,2.396l-30.987,31.014l-30.994-31.016
		c-1.532-1.533-3.61-2.394-5.779-2.394c-2.169,0-4.247,0.862-5.78,2.396l-30.986,31.013l-30.981-31.013
		c-1.532-1.534-3.611-2.396-5.78-2.396c-2.169,0-4.247,0.862-5.78,2.396l-30.982,31.013l-30.986-31.013
		c-1.533-1.534-3.611-2.396-5.78-2.396c-2.169,0-4.246,0.862-5.78,2.396l-22.816,22.835v-41.572H145.7c4.513,0,8.17-3.657,8.17-8.17
		s-3.657-8.17-8.17-8.17h-28.596V217.875h277.79V426.18H178.381c-4.513,0-8.17,3.657-8.17,8.17s3.657,8.17,8.17,8.17h216.513v41.573
		L372.076,461.257z"/>
</g>
</svg>