<svg width="86" height="64" viewBox="0 0 86 64" fill="none" xmlns="http://www.w3.org/2000/svg">
<path d="M50.2062 10.4868C48.3992 10.9907 46.5598 10.1498 45.71 8.60217C43.8043 5.09283 38.5652 4.26214 35.6789 7.08794C34.2689 8.43474 32.2223 8.45581 30.8445 7.50578C27.6155 5.3389 22.7201 6.68892 21.2266 10.5481C20.5671 12.2604 18.8047 13.2082 17.0146 12.874C15.1963 12.508 13.0006 13.4659 11.9309 14.6821L34.0232 36.7747C35.4382 36.8921 36.8774 36.982 38.3347 37.0444L58.2204 16.8268C58.4259 12.7992 54.1657 9.36386 50.2062 10.4868Z" fill="#4CA346"/>
<path d="M46.6507 16.1805C50.8747 20.4046 57.5465 20.6893 62.1003 17.0345C62.636 16.6046 62.6725 15.8006 62.1869 15.3149L47.5162 0.64422C47.0307 0.158671 46.2265 0.195179 45.7966 0.730908C42.1419 5.28468 42.4266 11.9566 46.6507 16.1805Z" fill="#FF6752"/>
<path d="M47.5294 15.3019C43.4919 11.2644 43.4919 4.69476 47.5294 0.65725C46.515 -0.357113 44.825 -0.171353 44.0492 1.03504C40.8528 6.00489 41.427 12.7143 45.772 17.0591C50.1168 21.404 56.8262 21.9783 61.7961 18.782C63.0025 18.0061 63.1882 16.3161 62.1739 15.3017C58.1365 19.3392 51.5667 19.3392 47.5294 15.3019Z" fill="#FF6752"/>
<path d="M52.5086 10.3227C53.8027 11.6168 55.9009 11.6169 57.1949 10.3227L52.5086 5.63626C51.2144 6.93047 51.2144 9.02851 52.5086 10.3227Z" fill="#FF9C8F"/>
<path d="M47.0396 7.04819C46.96 7.72046 46.9671 8.40126 47.0604 9.07176C47.1549 9.75144 47.7828 10.2257 48.4623 10.1312C48.7407 10.0924 48.9846 9.96438 49.169 9.77974C49.435 9.51373 49.5775 9.13047 49.5217 8.72903C49.4577 8.26889 49.4527 7.80168 49.5074 7.34009C49.5882 6.65849 49.1008 6.04058 48.4194 5.96016C47.7381 5.87959 47.1202 6.36674 47.0396 7.04819Z" fill="#FFD885"/>
<path d="M51.564 12.2446C51.3824 12.1044 51.2076 11.9505 51.044 11.7872C50.8793 11.6225 50.7243 11.4463 50.5829 11.2628C50.1641 10.7191 49.3837 10.6181 48.8401 11.0371C48.2964 11.4553 48.1955 12.2363 48.6145 12.7799C48.8207 13.0473 49.0468 13.3047 49.2866 13.5445C49.5246 13.7825 49.7799 14.0069 50.0448 14.2118C50.5449 14.5981 51.2465 14.5436 51.682 14.108C51.7193 14.0707 51.7547 14.0305 51.7879 13.9877C52.2073 13.4446 52.1069 12.6641 51.564 12.2446Z" fill="#FFD885"/>
<path d="M33.3696 33.7235C32.3234 33.0028 31.9223 31.6613 32.4408 30.4873C33.6057 27.8377 31.8597 24.7464 29.2026 24.2206C28.0562 24.009 27.0588 22.9856 27.0277 21.621C26.998 18.7937 24.0089 16.6117 21.3422 17.4053C20.1615 17.7507 18.8414 17.2565 18.1998 16.1127C16.803 13.5971 13.0134 13.1887 11.131 15.2836C10.2361 16.3053 8.85233 16.4197 7.5274 16.1281C4.83734 15.5166 2.12669 17.9482 3.26779 20.546C3.59637 21.3125 4.20945 21.9301 4.89057 22.3175C6.09424 23.0072 7.09235 23.9823 6.92831 25.3733C6.7567 26.8617 7.25463 28.4005 8.31709 29.5125C9.25393 30.4609 10.015 30.6931 10.6078 30.9387C10.198 30.7026 9.83292 30.4739 9.51367 30.2562C9.83292 30.4741 10.1982 30.7026 10.6078 30.9387C10.8463 31.0375 11.0576 31.1388 11.2421 31.2895C12.6221 32.0229 14.4523 32.8145 16.8609 33.5912C22.0358 35.2598 28.3961 36.3824 35.2775 36.8708C35.0866 35.5795 34.3771 34.3968 33.3696 33.7235Z" fill="#4CA346"/>
<path d="M33.5364 13.5135C27.131 13.5135 21.9384 18.7061 21.9384 25.1115C21.9384 27.38 22.5921 29.4948 23.7181 31.2824C29.168 32.4111 35.3903 33.0588 41.8846 33.158C43.8954 31.0724 45.1344 28.2374 45.1344 25.1115C45.1342 18.7061 39.9415 13.5135 33.5364 13.5135Z" fill="#FF6752"/>
<path d="M34.7792 31.7388V18.4841C34.7792 17.7978 34.2229 17.2415 33.5366 17.2415C32.8504 17.2415 32.2941 17.7978 32.2941 18.4841V31.7388C32.2941 32.0903 32.4406 32.4069 32.6749 32.6329C33.1862 32.6844 33.7013 32.732 34.2195 32.7762C34.5565 32.5543 34.7792 32.1726 34.7792 31.7388Z" fill="#FF9C8F"/>
<path d="M33.5363 28.4246C35.3664 28.4246 36.8501 26.941 36.8501 25.1108C36.8501 23.2807 35.3664 21.7971 33.5363 21.7971C31.7062 21.7971 30.2225 23.2807 30.2225 25.1108C30.2225 26.941 31.7062 28.4246 33.5363 28.4246Z" fill="#FF9C8F"/>
<path d="M33.5363 12.2709C26.4558 12.2709 20.6957 18.031 20.6957 25.1115C20.6957 27.2037 21.2018 29.1789 22.0935 30.926C23.1939 31.1808 24.3295 31.4154 25.4968 31.6285C24.0501 29.8475 23.1812 27.5793 23.1812 25.1115C23.1812 19.4017 27.8266 14.7562 33.5364 14.7562C39.2463 14.7562 43.8917 19.4017 43.8917 25.1115C43.8917 28.3334 42.4122 31.2158 40.0976 33.1165C41.2303 33.1516 42.3728 33.1701 43.5226 33.1712C45.3061 30.9659 46.3772 28.1621 46.3772 25.1115C46.3769 18.031 40.6164 12.2709 33.5363 12.2709Z" fill="#FF6752"/>
<path d="M28.6708 18.929C28.1391 19.3481 27.6627 19.8344 27.2547 20.3745C26.841 20.9221 26.9494 21.7014 27.4969 22.115C27.7212 22.2844 27.9842 22.3664 28.2451 22.3664C28.6214 22.3664 28.9931 22.1961 29.2376 21.8728C29.5176 21.5021 29.8447 21.1684 30.2096 20.8807C30.7486 20.4559 30.841 19.6743 30.4161 19.1355C29.991 18.5965 29.2097 18.504 28.6708 18.929Z" fill="#FFD885"/>
<path d="M30.2049 29.3386C29.8405 29.0507 29.5138 28.7167 29.2341 28.3455C28.8211 27.7975 28.0419 27.6882 27.4938 28.1013C26.9458 28.5145 26.8364 29.2936 27.2496 29.8417C27.6572 30.3822 28.1332 30.8692 28.6645 31.2889C28.8925 31.469 29.1642 31.5565 29.4339 31.5565C29.801 31.5565 30.1645 31.3944 30.4098 31.084C30.8352 30.5455 30.7435 29.764 30.2049 29.3386Z" fill="#FFD885"/>
<path d="M28.1957 25.8026C28.1664 25.5752 28.1516 25.3426 28.1516 25.1115C28.1516 24.8786 28.1667 24.6443 28.1965 24.4146C28.2846 23.7341 27.8043 23.1107 27.1237 23.0226C26.4436 22.9338 25.8199 23.4147 25.7317 24.0954C25.6883 24.4302 25.6663 24.772 25.6663 25.1113C25.6663 25.4479 25.688 25.7871 25.7306 26.1193C25.8112 26.7462 26.3458 27.2037 26.9616 27.2037C27.0143 27.2037 27.0677 27.2002 27.1215 27.1934C27.8021 27.106 28.283 26.4834 28.1957 25.8026Z" fill="#FFD885"/>
<path d="M36.8678 20.8843C37.2322 21.1722 37.5589 21.5063 37.8386 21.8775C38.0827 22.2015 38.455 22.372 38.8319 22.372C39.0923 22.372 39.3549 22.2903 39.5789 22.1214C40.1269 21.7083 40.2362 20.9292 39.8231 20.3811C39.4155 19.8405 38.9395 19.3535 38.4082 18.9339C37.8698 18.5085 37.0883 18.6 36.6629 19.1387C36.2375 19.6775 36.329 20.4588 36.8678 20.8843Z" fill="#FFD885"/>
<path d="M39.5757 28.1078C39.0279 27.6941 38.2489 27.8025 37.8352 28.35C37.5552 28.7207 37.2281 29.0544 36.8631 29.3421C36.3242 29.7669 36.2317 30.5485 36.6566 31.0873C36.9019 31.3984 37.2657 31.5606 37.6334 31.5606C37.9027 31.5606 38.1739 31.4735 38.402 31.2937C38.9337 30.8745 39.4101 30.3882 39.8181 29.8481C40.2317 29.3008 40.1233 28.5214 39.5757 28.1078Z" fill="#FFD885"/>
<path d="M41.3419 24.1034C41.2544 23.4227 40.6312 22.942 39.951 23.0292C39.2704 23.1167 38.7893 23.7394 38.8768 24.4201C38.9061 24.6475 38.9209 24.88 38.9209 25.1111C38.9209 25.344 38.9058 25.5784 38.876 25.808C38.7879 26.4885 39.2681 27.1119 39.9488 27.2C40.003 27.2069 40.0567 27.2105 40.1099 27.2105C40.7251 27.2105 41.2595 26.7537 41.3408 26.1273C41.3842 25.7924 41.4062 25.4507 41.4062 25.1113C41.4062 24.7747 41.3845 24.4357 41.3419 24.1034Z" fill="#FFD885"/>
<path d="M78.8451 10.4392C76.9427 10.8557 74.9556 10.6923 73.6706 9.23277C70.968 6.24018 65.5262 6.82335 63.5205 10.4171C62.5991 12.0512 60.7039 12.7572 59.0084 12.2636C55.1791 11.1296 50.8875 14.247 50.8447 18.286C50.8002 20.2354 49.3678 21.6973 47.7217 21.9999C43.9063 22.751 41.3993 27.1671 43.0721 30.9521C43.8166 32.6294 43.2405 34.5457 41.7383 35.5752C41.1468 35.9686 40.6278 36.4842 40.2009 37.0813C41.4856 37.1251 42.7829 37.1479 44.0897 37.1479C53.9589 37.1479 63.3121 35.8846 70.4259 33.5907C71.3787 33.2835 73.098 32.6229 73.878 32.3154C74.7637 30.8749 75.4521 31.8345 77.7111 29.5591C79.2364 27.9709 79.9517 25.7723 79.7053 23.6461C79.4696 21.6591 80.9028 20.266 82.6313 19.2809C83.6091 18.7274 84.4897 17.8451 84.9612 16.7502C86.5999 13.0393 82.7078 9.56553 78.8451 10.4392Z" fill="#4CA346"/>
<path d="M70.1172 30.9904C69.7272 26.4702 65.9256 22.91 61.3061 22.91C56.4281 22.91 52.4597 26.8785 52.4597 31.7564C52.4597 32.933 52.6924 34.056 53.1116 35.084C58.119 34.4851 62.7346 33.5331 66.6655 32.2656C67.9819 31.841 69.1247 31.4121 70.1172 30.9904Z" fill="#FF6752"/>
<path d="M65.1822 26.7859C65.1822 26.7745 65.1822 26.7629 65.1822 26.7515C65.1742 24.6441 63.4481 22.9182 61.3407 22.91C61.3293 22.91 61.3177 22.91 61.3063 22.91C56.4283 22.91 52.46 26.8785 52.46 31.7564C52.46 31.7678 52.46 31.7794 52.46 31.7908C52.4651 33.0992 53.1327 34.2604 54.1423 34.9547C56.923 34.5911 59.573 34.1166 62.0418 33.5386C63.9607 31.9148 65.1822 29.4909 65.1822 26.7859Z" fill="#FF6752"/>
<path d="M32.8734 3.10123C31.9068 2.1348 30.3252 2.1348 29.3587 3.10123C28.3923 4.06766 28.3923 5.64944 29.3587 6.61587L32.8734 10.1305C33.84 11.097 35.4216 11.097 36.388 10.1305C37.3545 9.16409 37.3545 7.58247 36.388 6.61587L32.8734 3.10123Z" fill="#FF6752"/>
<path d="M71.8095 15.7287H66.839C65.4721 15.7287 64.3536 16.8472 64.3536 18.2141C64.3536 19.581 65.4721 20.6994 66.839 20.6994H71.8095C73.1764 20.6994 74.2948 19.581 74.2948 18.2141C74.2948 16.8472 73.1764 15.7287 71.8095 15.7287Z" fill="#FF6752"/>
<path d="M16.6362 21.161L13.1216 24.6756C12.1551 25.6421 12.1551 27.2237 13.1216 28.1903C14.088 29.1567 15.6696 29.1567 16.6362 28.1903L20.1508 24.6756C21.1174 23.7092 21.1174 22.1276 20.1508 21.161C19.1842 20.1945 17.6026 20.1945 16.6362 21.161Z" fill="#FF6752"/>
<path d="M78.5213 30.8628H43.6454L20.7786 55.8503H20.7821C20.7821 55.9542 20.7839 56.0578 20.7876 56.1611C20.9444 60.5608 24.6097 64 28.9557 64H43.6456H58.3354C62.6814 64 66.3467 60.5609 66.5035 56.1611C66.5072 56.0578 66.509 55.9542 66.509 55.8503H66.5125C74.9131 51.5319 81.0269 44.9003 83.2147 37.1822C84.1115 34.0178 81.7712 30.8628 78.5213 30.8628Z" fill="#A2AF9F"/>
<path d="M49.4332 48.4828C54.8353 41.3262 49.7982 31 40.9051 31H4.89078C1.65293 31 -0.700035 34.1372 0.189684 37.2911C2.37072 45.0221 8.49163 51.6639 16.9039 55.9876H34.3819C40.2346 55.9876 45.7837 53.2726 49.36 48.5795C49.3844 48.5473 49.4089 48.5152 49.4332 48.4828Z" fill="#A2AF9F"/>
</svg>
