<svg width="117" height="49" viewBox="0 0 117 49" fill="none" xmlns="http://www.w3.org/2000/svg">
<path d="M31.1179 39.731C32.1453 40.7137 32.6589 41.8303 32.6589 43.081C32.6589 44.3317 32.1899 45.4483 31.2519 46.431C30.3586 47.4137 29.3089 47.905 28.1029 47.905C26.9416 47.905 25.8696 47.436 24.8869 46.498L10.2139 32.897V43.148C10.2139 44.7113 9.72259 45.895 8.73992 46.699C7.80192 47.503 6.61826 47.905 5.18892 47.905C3.71492 47.905 2.48659 47.503 1.50392 46.699C0.565924 45.895 0.0969238 44.7113 0.0969238 43.148V4.757C0.0969238 3.19367 0.565924 2.01 1.50392 1.206C2.48659 0.402 3.71492 0 5.18892 0C6.61826 0 7.80192 0.402 8.73992 1.206C9.72259 2.01 10.2139 3.19367 10.2139 4.757V28.743L23.6139 15.544C24.5966 14.5613 25.6909 14.07 26.8969 14.07C28.1476 14.07 29.2419 14.539 30.1799 15.477C31.1179 16.3703 31.5869 17.4423 31.5869 18.693C31.5869 19.8543 31.0733 20.9487 30.0459 21.976L21.1349 30.485L31.1179 39.731Z" fill="black"/>
<path d="M52.3391 48.106C48.9445 48.106 45.9741 47.4137 43.4281 46.029C40.8821 44.6443 38.9168 42.679 37.5321 40.133C36.1921 37.587 35.5221 34.5943 35.5221 31.155C35.5221 27.7157 36.2368 24.7007 37.6661 22.11C39.1401 19.4747 41.1948 17.4423 43.8301 16.013C46.4655 14.5837 49.5028 13.869 52.9421 13.869C54.7288 13.869 56.5155 14.1147 58.3021 14.606C60.1335 15.0973 61.7638 15.7897 63.1931 16.683C64.5778 17.5317 65.2701 18.7823 65.2701 20.435C65.2701 21.5963 65.0021 22.5567 64.4661 23.316C63.9301 24.0307 63.2155 24.388 62.3221 24.388C61.7415 24.388 61.1831 24.2987 60.6471 24.12C60.1558 23.8967 59.4858 23.584 58.6371 23.182C57.6991 22.6907 56.8505 22.311 56.0911 22.043C55.3765 21.775 54.5501 21.641 53.6121 21.641C51.1108 21.641 49.1901 22.445 47.8501 24.053C46.5548 25.6163 45.9071 27.9167 45.9071 30.954C45.9071 33.9913 46.5548 36.314 47.8501 37.922C49.1901 39.53 51.1108 40.334 53.6121 40.334C54.5501 40.334 55.3765 40.2223 56.0911 39.999C56.8058 39.731 57.6768 39.329 58.7041 38.793C59.5528 38.391 60.2228 38.1007 60.7141 37.922C61.2055 37.6987 61.7415 37.587 62.3221 37.587C63.1708 37.587 63.8631 37.9667 64.3991 38.726C64.9798 39.4853 65.2701 40.4457 65.2701 41.607C65.2701 43.2597 64.5778 44.488 63.1931 45.292C61.7638 46.1853 60.1111 46.8777 58.2351 47.369C56.3591 47.8603 54.3938 48.106 52.3391 48.106Z" fill="black"/>
<path d="M85.0445 13.869C89.8685 13.869 93.4419 15.0527 95.7645 17.42C98.0872 19.7427 99.2486 23.316 99.2486 28.14V43.282C99.2486 44.756 98.8242 45.9173 97.9755 46.766C97.1269 47.57 95.9432 47.972 94.4246 47.972C92.9952 47.972 91.8339 47.5477 90.9406 46.699C90.0919 45.8057 89.6675 44.6667 89.6675 43.282V42.813C88.9976 44.4657 87.8809 45.761 86.3176 46.699C84.7542 47.637 82.9229 48.106 80.8235 48.106C78.5902 48.106 76.5579 47.6593 74.7265 46.766C72.9399 45.8727 71.5105 44.622 70.4385 43.014C69.4112 41.406 68.8975 39.6193 68.8975 37.654C68.8975 35.242 69.5005 33.3437 70.7066 31.959C71.9572 30.5743 73.9449 29.5693 76.6695 28.944C79.3942 28.3187 83.1239 28.006 87.8586 28.006H89.6005V26.8C89.6005 24.924 89.1762 23.5617 88.3275 22.713C87.5235 21.8643 86.1612 21.44 84.2405 21.44C82.3199 21.44 79.5506 22.11 75.9325 23.45C74.9052 23.9413 74.0342 24.187 73.3195 24.187C72.3369 24.187 71.5552 23.852 70.9745 23.182C70.3939 22.4673 70.1035 21.5517 70.1035 20.435C70.1035 19.5417 70.3046 18.8047 70.7066 18.224C71.1086 17.6433 71.7562 17.1073 72.6495 16.616C74.2129 15.7673 76.1112 15.0973 78.3446 14.606C80.6226 14.1147 82.8559 13.869 85.0445 13.869ZM83.0345 41.138C84.9999 41.138 86.5855 40.4903 87.7915 39.195C88.9976 37.855 89.6005 36.1353 89.6005 34.036V32.897H88.4615C84.8436 32.897 82.2975 33.1873 80.8235 33.768C79.3942 34.3487 78.6796 35.3983 78.6796 36.917C78.6796 38.1677 79.0816 39.195 79.8856 39.999C80.7342 40.7583 81.7839 41.138 83.0345 41.138Z" fill="black"/>
<path d="M111.905 47.972C110.431 47.972 109.202 47.57 108.22 46.766C107.282 45.962 106.813 44.7783 106.813 43.215V4.757C106.813 3.19367 107.282 2.01 108.22 1.206C109.202 0.402 110.431 0 111.905 0C113.334 0 114.518 0.402 115.456 1.206C116.438 2.01 116.93 3.19367 116.93 4.757V43.215C116.93 44.7783 116.438 45.962 115.456 46.766C114.518 47.57 113.334 47.972 111.905 47.972Z" fill="black"/>
</svg>
