<svg width="116" height="19" viewBox="0 0 116 19" fill="none" xmlns="http://www.w3.org/2000/svg">
<path d="M2.35594 18C1.85594 18 1.44761 17.9 1.13094 17.7C0.814272 17.4833 0.597605 17.2 0.480939 16.85C0.380939 16.4833 0.380939 16.0833 0.480939 15.65C0.597605 15.2167 0.830939 14.7833 1.18094 14.35L10.2809 2.425V3.6H2.05594C1.50594 3.6 1.08094 3.45833 0.780939 3.175C0.497605 2.89167 0.355939 2.49167 0.355939 1.975C0.355939 1.45833 0.497605 1.06667 0.780939 0.799999C1.08094 0.516666 1.50594 0.374999 2.05594 0.374999H12.1059C12.6226 0.374999 13.0309 0.483332 13.3309 0.699999C13.6476 0.9 13.8643 1.175 13.9809 1.525C14.0976 1.875 14.0976 2.275 13.9809 2.725C13.8643 3.15833 13.6309 3.59167 13.2809 4.025L4.18094 15.925V14.775H12.8059C13.3559 14.775 13.7726 14.9167 14.0559 15.2C14.3559 15.4667 14.5059 15.8583 14.5059 16.375C14.5059 16.9083 14.3559 17.3167 14.0559 17.6C13.7726 17.8667 13.3559 18 12.8059 18H2.35594ZM23.8968 18.275C22.6468 18.275 21.5385 18.1167 20.5718 17.8C19.6218 17.4667 18.8218 16.9833 18.1718 16.35C17.5218 15.7167 17.0301 14.925 16.6968 13.975C16.3801 13.0083 16.2218 11.8917 16.2218 10.625V2.125C16.2218 1.475 16.3885 0.983333 16.7218 0.65C17.0551 0.316666 17.5385 0.149999 18.1718 0.149999C18.7885 0.149999 19.2635 0.316666 19.5968 0.65C19.9301 0.983333 20.0968 1.475 20.0968 2.125V10.65C20.0968 12.0833 20.4218 13.1667 21.0718 13.9C21.7218 14.6167 22.6635 14.975 23.8968 14.975C25.1301 14.975 26.0635 14.6167 26.6968 13.9C27.3468 13.1667 27.6718 12.0833 27.6718 10.65V2.125C27.6718 1.475 27.8385 0.983333 28.1718 0.65C28.5051 0.316666 28.9801 0.149999 29.5968 0.149999C30.2135 0.149999 30.6801 0.316666 30.9968 0.65C31.3301 0.983333 31.4968 1.475 31.4968 2.125V10.625C31.4968 12.3083 31.2051 13.725 30.6218 14.875C30.0551 16.0083 29.2051 16.8583 28.0718 17.425C26.9551 17.9917 25.5635 18.275 23.8968 18.275ZM35.0638 18.225C34.5972 18.225 34.2138 18.1167 33.9138 17.9C33.6305 17.6833 33.4472 17.3917 33.3638 17.025C33.2972 16.6583 33.3722 16.25 33.5888 15.8L39.9888 1.775C40.2555 1.20833 40.5722 0.799999 40.9388 0.55C41.3055 0.283332 41.7305 0.149999 42.2138 0.149999C42.6972 0.149999 43.1222 0.283332 43.4888 0.55C43.8555 0.799999 44.1638 1.20833 44.4138 1.775L50.8638 15.8C51.0805 16.25 51.1555 16.6667 51.0888 17.05C51.0388 17.4167 50.8722 17.7083 50.5888 17.925C50.3055 18.125 49.9388 18.225 49.4888 18.225C48.9222 18.225 48.4805 18.0917 48.1638 17.825C47.8638 17.5583 47.5972 17.1417 47.3638 16.575L45.8638 13.1L47.4138 14.175H36.9888L38.5388 13.1L37.0638 16.575C36.8138 17.1583 36.5472 17.5833 36.2638 17.85C35.9972 18.1 35.5972 18.225 35.0638 18.225ZM42.1638 4.5L38.9638 12.125L38.2888 11.15H46.1138L45.4388 12.125L42.2138 4.5H42.1638ZM54.9471 18.225C54.3804 18.225 53.9471 18.0667 53.6471 17.75C53.3471 17.4333 53.1971 16.9917 53.1971 16.425V1.95C53.1971 1.38333 53.3554 0.941665 53.6721 0.624999C54.0054 0.308332 54.4554 0.149999 55.0221 0.149999C55.5221 0.149999 55.9137 0.249999 56.1971 0.449999C56.4971 0.633332 56.7721 0.958332 57.0221 1.425L62.7971 11.975H61.9471L67.7221 1.425C67.9721 0.958332 68.2387 0.633332 68.5221 0.449999C68.8221 0.249999 69.2137 0.149999 69.6971 0.149999C70.2637 0.149999 70.6971 0.308332 70.9971 0.624999C71.3137 0.941665 71.4721 1.38333 71.4721 1.95V16.425C71.4721 16.9917 71.3221 17.4333 71.0221 17.75C70.7221 18.0667 70.2887 18.225 69.7221 18.225C69.1554 18.225 68.7137 18.0667 68.3971 17.75C68.0971 17.4333 67.9471 16.9917 67.9471 16.425V6.3H68.4971L63.8471 14.625C63.6471 14.9417 63.4304 15.1833 63.1971 15.35C62.9804 15.5 62.6887 15.575 62.3221 15.575C61.9554 15.575 61.6554 15.4917 61.4221 15.325C61.1887 15.1583 60.9804 14.925 60.7971 14.625L56.0971 6.275H56.6971V16.425C56.6971 16.9917 56.5471 17.4333 56.2471 17.75C55.9637 18.0667 55.5304 18.225 54.9471 18.225ZM76.7565 18.225C76.1232 18.225 75.6398 18.05 75.3065 17.7C74.9732 17.35 74.8065 16.8583 74.8065 16.225V2.15C74.8065 1.51667 74.9732 1.025 75.3065 0.675C75.6398 0.324999 76.1232 0.149999 76.7565 0.149999C77.3732 0.149999 77.8482 0.324999 78.1815 0.675C78.5148 1.025 78.6815 1.51667 78.6815 2.15V16.225C78.6815 16.8583 78.5148 17.35 78.1815 17.7C77.8648 18.05 77.3898 18.225 76.7565 18.225ZM90.5384 18.275C88.6384 18.275 87.0134 17.9 85.6634 17.15C84.3134 16.4 83.2717 15.35 82.5384 14C81.8217 12.6333 81.4634 11.025 81.4634 9.175C81.4634 7.79167 81.6634 6.55 82.0634 5.45C82.48 4.33333 83.08 3.38333 83.8634 2.6C84.6467 1.8 85.5967 1.18333 86.7134 0.749999C87.8467 0.316666 89.1217 0.0999995 90.5384 0.0999995C91.3717 0.0999995 92.2134 0.208333 93.0634 0.425C93.93 0.624999 94.68 0.916666 95.3134 1.3C95.73 1.53333 96.0134 1.825 96.1634 2.175C96.3134 2.525 96.355 2.875 96.2884 3.225C96.2384 3.575 96.0967 3.875 95.8634 4.125C95.6467 4.375 95.3717 4.53333 95.0384 4.6C94.705 4.66667 94.33 4.59167 93.9134 4.375C93.4134 4.075 92.8884 3.85833 92.3384 3.725C91.7884 3.59167 91.23 3.525 90.6634 3.525C89.5467 3.525 88.605 3.75 87.8384 4.2C87.0884 4.63333 86.5217 5.26667 86.1384 6.1C85.755 6.93333 85.5634 7.95833 85.5634 9.175C85.5634 10.375 85.755 11.4 86.1384 12.25C86.5217 13.1 87.0884 13.75 87.8384 14.2C88.605 14.6333 89.5467 14.85 90.6634 14.85C91.1967 14.85 91.7384 14.7833 92.2884 14.65C92.855 14.5167 93.3967 14.3083 93.9134 14.025C94.3467 13.8083 94.73 13.7333 95.0634 13.8C95.4134 13.85 95.6967 14 95.9134 14.25C96.1467 14.4833 96.2884 14.7667 96.3384 15.1C96.405 15.4333 96.3717 15.7667 96.2384 16.1C96.105 16.4333 95.855 16.7167 95.4884 16.95C94.8717 17.3667 94.1134 17.6917 93.2134 17.925C92.3134 18.1583 91.4217 18.275 90.5384 18.275ZM99.0208 18.225C98.5542 18.225 98.1708 18.1167 97.8708 17.9C97.5875 17.6833 97.4042 17.3917 97.3208 17.025C97.2542 16.6583 97.3292 16.25 97.5458 15.8L103.946 1.775C104.212 1.20833 104.529 0.799999 104.896 0.55C105.262 0.283332 105.687 0.149999 106.171 0.149999C106.654 0.149999 107.079 0.283332 107.446 0.55C107.812 0.799999 108.121 1.20833 108.371 1.775L114.821 15.8C115.037 16.25 115.112 16.6667 115.046 17.05C114.996 17.4167 114.829 17.7083 114.546 17.925C114.262 18.125 113.896 18.225 113.446 18.225C112.879 18.225 112.437 18.0917 112.121 17.825C111.821 17.5583 111.554 17.1417 111.321 16.575L109.821 13.1L111.371 14.175H100.946L102.496 13.1L101.021 16.575C100.771 17.1583 100.504 17.5833 100.221 17.85C99.9542 18.1 99.5542 18.225 99.0208 18.225ZM106.121 4.5L102.921 12.125L102.246 11.15H110.071L109.396 12.125L106.171 4.5H106.121Z" fill="#CFE7CB"/>
</svg>
